<svg xmlns="http://www.w3.org/2000/svg" width="150" height="150" viewBox="0 0 150 150">
<g>
<path d="M 60.17 140.53 C56.69,139.74 49.98,137.22 45.26,134.94 C28.60,126.88 14.04,108.90 9.62,90.94 C7.60,82.74 7.53,66.62 9.48,58.37 C16.65,27.93 43.76,6.72 75.50,6.70 C105.24,6.68 129.78,24.53 140.14,53.72 C143.06,61.93 143.78,80.05 141.57,89.50 C138.73,101.64 132.67,112.39 123.53,121.50 C109.46,135.52 97.13,140.96 78.00,141.59 C70.31,141.84 64.40,141.49 60.17,140.53 ZM 95.90 136.42 C112.56,130.90 126.41,118.94 133.87,103.63 C143.33,84.24 143.33,64.32 133.88,45.00 C130.52,38.14 128.06,34.86 121.11,27.98 C111.47,18.44 102.33,13.22 90.31,10.40 C80.82,8.17 63.85,8.90 55.00,11.92 C35.80,18.46 21.16,32.82 13.63,52.50 C10.77,59.97 10.56,61.39 10.53,74.00 C10.51,84.63 10.90,88.67 12.37,93.00 C18.38,110.64 30.78,125.29 46.00,132.74 C62.23,140.67 79.27,141.93 95.90,136.42 ZM 62.13 134.53 C34.09,128.15 14.00,103.02 14.00,74.35 C14.00,46.93 31.77,23.19 58.36,15.09 C66.73,12.54 81.69,12.27 90.54,14.51 C129.05,24.26 148.13,67.28 129.80,103.04 C122.82,116.65 108.73,128.49 94.02,133.11 C85.46,135.80 70.62,136.46 62.13,134.53 ZM 99.22 113.35 C104.56,112.99 108.73,112.37 108.48,111.97 C107.86,110.96 49.96,110.71 45.29,111.70 C42.46,112.30 45.16,112.64 56.00,113.04 C80.42,113.95 89.10,114.02 99.22,113.35 ZM 54.80 100.75 C55.08,94.33 55.21,94.00 57.55,94.00 C59.33,94.00 60.00,93.46 60.00,92.00 C60.00,90.17 59.33,90.00 52.00,90.00 C44.67,90.00 44.00,90.17 44.00,92.00 C44.00,93.47 44.67,94.00 46.50,94.00 C48.90,94.00 49.00,94.24 49.00,100.33 C49.00,107.29 49.43,108.23 52.46,107.79 C54.25,107.54 54.54,106.67 54.80,100.75 ZM 75.00 102.84 C75.00,99.33 74.45,97.45 73.00,96.00 C70.49,93.49 65.93,93.43 62.91,95.87 L 60.60 97.74 L 62.85 98.45 C64.19,98.88 65.70,98.66 66.59,97.93 C67.66,97.03 68.39,96.99 69.17,97.77 C69.95,98.55 69.10,99.17 66.14,99.96 C61.32,101.26 59.24,104.10 61.47,106.33 C62.45,107.30 64.94,107.77 68.97,107.73 L 75.00 107.68 L 75.00 102.84 ZM 83.00 99.00 C83.00,90.07 82.98,90.00 80.50,90.00 C78.02,90.00 78.00,90.07 78.00,99.00 C78.00,107.93 78.02,108.00 80.50,108.00 C82.98,108.00 83.00,107.93 83.00,99.00 ZM 91.00 99.00 C91.00,90.07 90.98,90.00 88.50,90.00 C86.03,90.00 86.00,90.11 86.00,98.33 C86.00,107.17 86.27,108.00 89.17,108.00 C90.81,108.00 91.00,107.06 91.00,99.00 ZM 105.40 106.69 C106.50,105.89 107.06,104.45 106.84,102.94 C106.58,101.06 105.64,100.29 102.75,99.57 C97.63,98.31 98.00,96.84 103.25,97.56 L 107.50 98.14 L 105.14 96.07 C102.18,93.48 98.91,93.43 95.86,95.94 C92.78,98.46 94.21,101.12 99.35,102.43 C104.52,103.74 103.89,105.26 98.50,104.45 C95.56,104.01 94.00,104.14 94.00,104.84 C94.00,107.73 102.16,109.06 105.40,106.69 ZM 75.99 76.78 C77.54,75.81 78.21,75.81 79.18,76.78 C79.85,77.45 81.05,78.00 81.85,78.00 C83.03,78.00 82.98,77.64 81.59,76.10 C80.13,74.49 80.07,73.87 81.14,72.14 C82.74,69.58 81.53,68.19 79.04,69.74 C77.57,70.66 76.92,70.61 75.98,69.48 C75.03,68.33 75.31,67.42 77.39,64.94 C80.36,61.42 80.63,59.77 78.54,58.03 C76.72,56.53 71.38,57.56 70.61,59.57 C70.30,60.37 70.57,62.15 71.19,63.52 C72.15,65.62 72.01,66.38 70.31,68.26 C67.21,71.71 66.91,72.63 67.97,75.42 C69.06,78.30 72.59,78.90 75.99,76.78 ZM 127.13 72.25 C128.37,70.66 128.34,70.63 126.75,71.87 C125.79,72.63 125.00,73.41 125.00,73.62 C125.00,74.45 125.82,73.92 127.13,72.25 ZM 126.13 70.25 C127.37,68.66 127.34,68.63 125.75,69.87 C124.79,70.63 124.00,71.41 124.00,71.62 C124.00,72.45 124.82,71.92 126.13,70.25 ZM 122.33 61.17 C125.44,61.42 126.53,61.12 126.76,59.94 C127.03,58.61 126.14,58.49 120.44,59.08 C116.51,59.48 113.16,60.41 112.22,61.35 C110.77,62.80 110.96,62.85 114.42,61.89 C116.50,61.32 120.06,61.00 122.33,61.17 ZM 36.79 59.49 C36.95,58.39 36.35,56.59 35.46,55.49 C34.02,53.73 33.90,53.71 34.41,55.32 C34.73,56.32 34.50,58.06 33.91,59.17 C32.85,61.16 32.75,61.14 29.86,58.37 C27.72,56.31 27.05,54.92 27.46,53.31 C27.85,51.74 27.44,50.77 26.07,50.04 C23.24,48.52 23.00,48.68 23.00,52.10 C23.00,56.72 28.80,62.24 33.22,61.82 C35.61,61.59 36.58,60.96 36.79,59.49 ZM 115.96 58.04 C122.59,56.96 120.72,52.05 113.38,51.29 C109.31,50.87 106.69,53.57 109.31,55.48 C110.42,56.30 110.79,57.38 110.35,58.54 C109.83,59.90 110.00,60.12 111.05,59.47 C111.81,59.00 114.02,58.36 115.96,58.04 ZM 40.00 51.44 C40.00,48.88 37.77,45.22 35.64,44.26 C30.46,41.94 29.32,46.47 33.92,51.08 C36.85,54.00 40.00,54.19 40.00,51.44 ZM 108.01 45.85 C111.72,44.55 114.08,41.00 111.23,41.00 C110.22,41.00 108.96,39.99 108.44,38.75 C107.51,36.53 107.45,36.55 103.50,40.37 C101.07,42.72 100.28,43.94 101.50,43.48 C102.60,43.06 104.85,42.53 106.50,42.30 C109.20,41.93 109.30,42.01 107.50,43.07 C104.60,44.78 102.99,47.09 103.06,49.44 C103.12,51.36 103.19,51.35 104.05,49.20 C104.56,47.94 106.34,46.43 108.01,45.85 ZM 117.73 48.53 C119.58,49.82 119.75,49.74 119.75,47.57 C119.75,44.98 114.90,41.81 114.18,43.95 C113.98,44.56 112.06,45.95 109.91,47.05 C104.39,49.86 105.04,51.17 110.86,48.96 C115.10,47.35 115.98,47.29 117.73,48.53 ZM 41.08 45.15 C40.49,44.04 40.02,42.09 40.04,40.82 C40.08,38.58 40.13,38.59 41.57,41.25 C42.39,42.76 43.50,44.00 44.03,44.00 C45.21,44.00 45.21,44.21 44.07,40.24 C42.95,36.35 43.54,36.15 46.18,39.50 C47.26,40.88 49.12,41.99 50.32,41.97 C52.28,41.94 52.33,41.84 50.75,40.92 C49.79,40.36 48.26,38.46 47.36,36.70 C44.81,31.72 42.00,30.85 42.00,35.03 C42.00,36.31 41.51,36.75 40.50,36.36 C39.58,36.01 39.00,36.36 39.00,37.28 C39.00,38.10 38.04,39.02 36.87,39.32 C34.81,39.86 34.84,40.01 37.99,43.99 C41.30,48.16 43.04,48.82 41.08,45.15 ZM 98.57 40.48 C96.16,38.65 97.10,37.64 101.27,37.56 C103.74,37.51 104.57,37.02 104.79,35.45 C105.05,33.64 104.66,33.44 101.49,33.81 C97.09,34.33 94.00,38.09 96.00,40.51 C96.69,41.33 97.98,41.99 98.87,41.97 C100.24,41.94 100.20,41.71 98.57,40.48 ZM 52.20 38.23 C51.54,38.01 50.99,36.86 50.98,35.67 C50.96,32.80 49.49,30.58 48.15,31.41 C47.39,31.88 47.41,32.87 48.23,34.79 C49.94,38.78 51.09,40.06 52.31,39.31 C53.07,38.84 53.04,38.51 52.20,38.23 ZM 56.56 35.81 C57.19,33.81 57.36,33.77 58.49,35.31 C60.18,37.63 61.31,37.45 60.04,35.07 C59.47,34.00 59.00,30.45 59.00,27.17 C59.00,22.62 58.62,21.07 57.39,20.60 C56.05,20.08 55.85,20.58 56.20,23.56 C56.51,26.22 56.17,27.37 54.89,28.06 C52.62,29.27 51.45,34.63 53.03,36.54 C54.72,38.58 55.75,38.36 56.56,35.81 ZM 93.75 37.25 C93.61,36.84 94.53,35.47 95.79,34.21 C97.04,32.96 97.79,31.47 97.45,30.91 C96.62,29.57 94.29,31.54 92.41,35.18 C91.11,37.68 91.12,38.00 92.47,38.00 C93.31,38.00 93.89,37.66 93.75,37.25 ZM 91.82 31.66 C93.15,32.01 93.89,31.53 94.27,30.09 C94.73,28.31 94.47,28.10 92.41,28.61 C90.61,29.06 90.00,28.81 90.00,27.61 C90.00,25.42 88.01,25.55 87.97,27.75 C87.95,28.71 87.28,30.37 86.47,31.44 C83.89,34.85 84.70,36.80 87.46,33.82 C89.04,32.12 90.61,31.35 91.82,31.66 ZM 64.76 33.84 C65.58,33.02 66.28,32.99 67.21,33.75 C68.23,34.60 68.50,33.78 68.50,29.74 C68.50,24.37 67.44,23.16 64.24,24.87 C61.83,26.16 59.81,32.41 61.32,33.92 C62.69,35.29 63.32,35.28 64.76,33.84 ZM 84.51 31.81 C86.81,29.08 87.10,28.03 86.55,24.56 C85.72,19.41 84.80,18.52 81.86,20.02 C78.16,21.92 76.05,25.19 76.02,29.05 C75.98,35.60 80.17,36.96 84.51,31.81 ZM 49.00 28.50 C50.02,27.27 49.95,27.00 48.62,27.00 C47.73,27.00 47.00,27.67 47.00,28.50 C47.00,29.33 47.17,30.00 47.38,30.00 C47.59,30.00 48.32,29.33 49.00,28.50 ZM 100.81 28.92 C100.61,28.33 100.02,27.85 99.50,27.85 C98.98,27.85 98.39,28.33 98.19,28.92 C97.99,29.52 98.58,30.00 99.50,30.00 C100.42,30.00 101.01,29.52 100.81,28.92 ZM 65.73 104.40 C64.64,103.31 65.96,102.00 68.14,102.00 C69.32,102.00 69.99,102.52 69.75,103.25 C69.28,104.68 66.73,105.40 65.73,104.40 ZM 69.00 74.17 C69.00,73.72 70.09,72.33 71.41,71.08 C73.83,68.81 73.83,68.81 74.93,70.86 C75.83,72.55 75.68,73.10 74.08,73.96 C71.75,75.21 69.00,75.32 69.00,74.17 ZM 73.00 62.62 C73.00,61.04 75.78,58.44 76.59,59.26 C77.26,59.92 74.82,64.00 73.76,64.00 C73.34,64.00 73.00,63.38 73.00,62.62 ZM 112.75 55.31 C111.79,55.06 111.00,54.39 111.00,53.82 C111.00,53.25 111.71,53.06 112.58,53.39 C113.45,53.73 114.58,54.00 115.08,54.00 C115.59,54.00 116.00,54.45 116.00,55.00 C116.00,56.04 115.66,56.07 112.75,55.31 ZM 35.16 49.45 C33.78,46.42 33.74,46.00 34.84,46.00 C35.57,46.00 38.00,50.27 38.00,51.55 C38.00,52.99 36.15,51.62 35.16,49.45 ZM 100.81 36.32 C101.53,36.03 102.40,36.06 102.73,36.40 C103.06,36.73 102.47,36.96 101.42,36.92 C100.25,36.87 100.01,36.64 100.81,36.32 ZM 54.31 34.00 C54.68,32.62 54.98,31.16 54.99,30.75 C54.99,30.34 55.45,30.00 56.00,30.00 C57.62,30.00 57.14,33.64 55.33,35.13 C53.82,36.36 53.72,36.24 54.31,34.00 ZM 63.03 31.87 C63.01,30.98 63.67,29.68 64.50,29.00 C66.42,27.40 66.44,29.03 64.53,31.56 C63.30,33.19 63.06,33.24 63.03,31.87 ZM 77.41 31.62 C76.57,29.45 78.66,26.23 82.03,24.48 C84.71,23.10 85.00,23.10 85.00,24.51 C85.00,28.50 78.53,34.55 77.41,31.62 Z" fill="rgba(0,0,0,1)"/>
</g>
</svg>